<svg xmlns="http://www.w3.org/2000/svg" xmlns:xlink="http://www.w3.org/1999/xlink" width="500" zoomAndPan="magnify" viewBox="0 0 375 225" height="300" preserveAspectRatio="xMidYMid meet" version="1.0"><defs><g/><clipPath id="9980a26805"><path d="M 35.082031 35.386719 L 167.644531 35.386719 L 167.644531 189.464844 L 35.082031 189.464844 Z M 35.082031 35.386719 " clip-rule="nonzero"/></clipPath></defs><g clip-path="url(#9980a26805)"><path fill="#024927" d="M 125.054688 178.589844 C 124.605469 179.429688 124.226562 180.0625 123.933594 180.730469 C 123.824219 180.976562 123.835938 181.335938 123.917969 181.605469 C 124.492188 183.460938 125.128906 185.296875 125.679688 187.15625 C 126.101562 188.59375 125.652344 189.089844 124.152344 188.941406 C 122.898438 188.820312 121.640625 188.683594 120.390625 188.523438 C 116.515625 188.382812 120.832031 183.023438 119.492188 180.351562 C 119.492188 177.792969 111.75 180.535156 104.816406 175.238281 C 103.554688 175.457031 102.589844 175.589844 101.648438 175.808594 C 100.539062 176.226562 99.25 180.046875 98.421875 181.25 C 97.773438 182.519531 96.316406 184.246094 94.902344 182.96875 C 93.457031 181.527344 90.003906 179.054688 92.6875 177.160156 C 94.34375 175.855469 96.042969 174.609375 97.699219 173.300781 C 98.621094 172.378906 99.367188 171.019531 100.117188 170.03125 C 99.175781 166.5 97.785156 162.976562 97.355469 159.300781 C 97.257812 157.730469 96.328125 158.496094 95.507812 157.761719 C 94.796875 156.914062 93.988281 157.082031 93.082031 157.332031 C 91.773438 157.691406 90.4375 157.972656 89.109375 158.253906 C 87.355469 158.625 86.859375 158.21875 86.824219 156.425781 C 86.328125 150.0625 88.546875 150.382812 93.402344 152.917969 C 94.699219 153.753906 95.152344 153.136719 96.441406 152.675781 C 95.570312 148.738281 94.695312 144.792969 93.636719 140.902344 C 93.097656 137.910156 90.996094 135.945312 89.132812 133.796875 C 74.199219 116.695312 55.917969 102.695312 35.804688 92.238281 C 35.082031 91.660156 35.140625 91.023438 35.878906 90.457031 C 42.304688 80.085938 46.855469 68.539062 49.46875 56.578125 C 50.757812 49.882812 51.460938 43.066406 52.375 36.308594 C 52.417969 36.003906 52.699219 35.730469 52.871094 35.441406 C 66.796875 48.875 84.601562 57.574219 102.71875 63.988281 C 103.257812 64.347656 103.78125 64.734375 103.453125 65.5625 C 100.949219 71.882812 99.429688 78.488281 98.179688 85.132812 C 96.359375 95.421875 94.5625 105.773438 94.445312 116.257812 C 94.113281 123.25 94.394531 130.285156 93.738281 137.257812 C 95.292969 142.039062 96.667969 146.898438 97.554688 151.871094 C 98.75 156.832031 104.601562 149.085938 106.128906 154.984375 C 106.632812 156.507812 106.789062 160.851562 104.34375 160.070312 C 102.367188 159.53125 100.5 158.917969 98.527344 158.304688 C 99.085938 162.25 99.882812 166.023438 101.632812 169.488281 C 102.5625 169.574219 103.042969 169.136719 103.546875 168.5 C 104.960938 167.027344 107.085938 163.539062 109.234375 165.84375 C 110.058594 166.667969 110.835938 167.546875 111.5625 168.457031 C 112.464844 169.585938 112.332031 170.078125 111.058594 170.683594 C 109.039062 171.761719 106.855469 172.390625 104.980469 173.710938 C 109.152344 176.734375 113.722656 177.894531 118.710938 177.761719 C 119.191406 176.765625 119.257812 175.914062 118.75 174.84375 C 117.964844 173.1875 117.429688 171.402344 116.917969 169.632812 C 116.507812 168.207031 117.027344 167.515625 118.492188 167.222656 C 120.359375 166.882812 122.230469 166.285156 124.144531 166.621094 C 124.851562 166.714844 125.101562 167.210938 125 167.898438 C 124.636719 170.394531 124.277344 172.894531 123.898438 175.386719 C 123.566406 179.796875 132.769531 173.75 141.542969 178.261719 C 142.742188 175.640625 145.015625 176.449219 145.3125 175.183594 C 145.726562 173.820312 146.066406 172.433594 146.507812 171.082031 C 146.976562 169.640625 147.425781 169.300781 148.792969 169.828125 C 150.652344 170.546875 152.449219 171.464844 154.195312 172.4375 C 155.121094 172.953125 155.050781 173.820312 154.136719 174.476562 C 152.867188 175.378906 151.550781 176.210938 150.265625 177.085938 C 148.875 178.03125 147.328125 178.882812 147.863281 181.09375 C 153.109375 183.761719 158.691406 185.644531 164.878906 184.847656 C 165.859375 184.785156 166.941406 184.476562 167.71875 185.261719 C 167.480469 185.503906 167.257812 185.941406 167.003906 185.960938 C 164.96875 186.101562 162.929688 186.210938 160.886719 186.238281 C 152.875 186.796875 145.34375 179.152344 144.792969 183.609375 C 144.542969 184.949219 144.351562 186.296875 144.101562 187.632812 C 143.808594 189.199219 143.371094 189.566406 141.847656 189.25 C 140.457031 188.960938 139.085938 188.539062 137.75 188.058594 C 136.664062 187.671875 136.417969 186.816406 137.121094 185.890625 C 138.394531 184.214844 139.742188 182.59375 141.085938 180.96875 C 143.769531 177.953125 129.980469 177.324219 128.445312 178.070312 C 127.261719 178.242188 126.082031 178.433594 125.054688 178.589844 Z M 91.539062 134.46875 C 84.597656 115.371094 77.277344 96.433594 69.558594 77.414062 C 58.738281 82.101562 47.992188 86.757812 37.183594 91.445312 C 58.035156 102.441406 76.214844 116.613281 91.539062 134.46875 Z M 101.65625 66.105469 C 91.496094 69.695312 81.179688 73.335938 70.988281 76.933594 C 78.292969 95.828125 85.519531 114.523438 92.71875 133.140625 C 92.691406 110.527344 94.730469 87.75 101.65625 66.105469 Z M 53.5 39.75 C 53.355469 39.769531 53.210938 39.789062 53.066406 39.8125 C 52.15625 57.5625 46.828125 73.980469 38.105469 89.378906 C 38.171875 89.425781 38.238281 89.46875 38.304688 89.515625 C 48.535156 85.078125 58.765625 80.636719 69.246094 76.089844 C 64.011719 64.007812 58.753906 51.878906 53.5 39.75 Z M 101.269531 64.917969 C 84.082031 58.652344 68.109375 50.839844 54.5 38.714844 C 59.859375 51.078125 65.191406 63.378906 70.515625 75.65625 C 80.640625 72.121094 90.828125 68.5625 101.269531 64.917969 Z M 110.441406 169.433594 C 106.800781 165.183594 107.832031 166.191406 104.148438 170.339844 C 103.875 170.664062 103.84375 171.261719 103.101562 171.070312 C 101.667969 170.699219 100.316406 171.585938 99.875 172.984375 C 99.753906 173.375 99.464844 173.773438 99.144531 174.023438 C 97.816406 175.0625 96.421875 176.011719 95.101562 177.054688 C 92.75 178.917969 92.757812 179.171875 95.019531 181.214844 C 95.929688 182.039062 96.199219 182.046875 96.789062 180.992188 C 97.765625 179.242188 98.722656 177.472656 99.554688 175.648438 C 100.050781 174.566406 100.707031 174.074219 101.882812 174.265625 C 102.882812 174.433594 103.515625 173.976562 103.757812 173.015625 C 103.929688 172.335938 104.359375 172.078125 104.996094 171.828125 C 106.789062 171.121094 108.535156 170.28125 110.441406 169.433594 Z M 124.179688 187.519531 C 124.035156 185.722656 121.644531 181.496094 122.378906 180.195312 C 123.714844 178.980469 123.273438 177.804688 122.542969 176.53125 C 122.339844 176.175781 122.269531 175.664062 122.335938 175.253906 C 122.703125 172.878906 123.128906 170.515625 123.582031 167.875 C 121.65625 168.195312 120.046875 168.460938 118.351562 168.742188 C 118.71875 171.191406 119.988281 173.324219 120.828125 175.632812 C 121.039062 176.132812 121.144531 176.441406 120.722656 176.917969 C 119.433594 178.648438 121.925781 180.476562 121.328125 182.359375 C 120.355469 187.339844 118.507812 186.921875 124.179688 187.519531 Z M 153.097656 173.371094 C 151.351562 172.546875 149.796875 171.804688 148.097656 171 C 147.566406 172.859375 147.105469 174.472656 146.644531 176.085938 C 146.417969 176.882812 145.957031 177.316406 145.074219 177.414062 C 141.941406 177.769531 143.757812 180.183594 142.230469 181.796875 C 140.863281 183.34375 139.585938 184.96875 138.132812 186.730469 C 139.722656 187.167969 141.070312 187.539062 142.507812 187.933594 C 142.867188 185.953125 143.226562 184.148438 143.507812 182.332031 C 143.648438 181.425781 144.046875 180.964844 144.992188 180.867188 C 146.199219 180.746094 146.480469 180.390625 146.417969 179.136719 C 146.378906 178.398438 146.625 177.902344 147.207031 177.492188 C 149.226562 176.027344 150.925781 174.773438 153.097656 173.371094 Z M 88.171875 156.890625 C 90.148438 156.445312 91.847656 156.078125 93.542969 155.683594 C 94.433594 155.476562 95.230469 155.421875 95.890625 156.273438 C 96.300781 156.800781 96.886719 157.019531 97.625 156.703125 C 97.929688 156.574219 98.398438 156.722656 98.757812 156.847656 C 100.75 157.546875 102.730469 158.277344 104.769531 159.019531 C 105.328125 157.359375 105.296875 155.984375 104.613281 154.644531 C 104.265625 153.960938 103.800781 153.660156 102.960938 153.953125 C 101.472656 154.472656 99.941406 154.871094 98.445312 155.316406 C 96.511719 152.867188 95.867188 155.546875 93.652344 154.636719 C 88.414062 152.789062 88.355469 150.421875 88.171875 156.890625 Z M 88.171875 156.890625 " fill-opacity="1" fill-rule="nonzero"/></g><g fill="#024927" fill-opacity="1"><g transform="translate(114.827605, 79.085218)"><g><path d="M 4.625 -9.953125 C 4.625 -3.097656 4.492188 2.234375 4.234375 6.046875 C 4.171875 6.648438 4.347656 7.144531 4.765625 7.53125 C 4.984375 7.84375 5.332031 8 5.8125 8 C 6.125 8 6.457031 7.796875 6.8125 7.390625 C 7.03125 7.097656 7.269531 6.828125 7.53125 6.578125 C 7.75 6.222656 7.890625 5.773438 7.953125 5.234375 C 7.503906 2.984375 7.21875 0.363281 7.09375 -2.625 C 7.601562 -2.019531 8.144531 -1.507812 8.71875 -1.09375 C 9.894531 -0.207031 11.515625 0.25 13.578125 0.28125 C 16.273438 0.28125 18.351562 -0.84375 19.8125 -3.09375 C 21.175781 -5.351562 21.875 -8.210938 21.90625 -11.671875 C 21.90625 -14.398438 21.128906 -16.828125 19.578125 -18.953125 C 17.890625 -20.960938 15.890625 -21.96875 13.578125 -21.96875 C 11.796875 -21.96875 10.144531 -21.347656 8.625 -20.109375 C 8.144531 -19.785156 7.679688 -19.351562 7.234375 -18.8125 C 7.335938 -19.863281 7.484375 -20.5625 7.671875 -20.90625 C 7.671875 -21.476562 7.492188 -21.863281 7.140625 -22.0625 C 6.472656 -22.4375 5.9375 -22.625 5.53125 -22.625 C 5.144531 -22.625 4.8125 -22.5 4.53125 -22.25 C 4.082031 -21.832031 3.859375 -21.515625 3.859375 -21.296875 C 4.367188 -17.835938 4.625 -14.054688 4.625 -9.953125 Z M 7 -15.15625 C 7.570312 -16.007812 8.207031 -16.753906 8.90625 -17.390625 C 10.65625 -18.785156 12.210938 -19.484375 13.578125 -19.484375 C 14.941406 -19.484375 16.132812 -18.691406 17.15625 -17.109375 C 18.132812 -15.546875 18.640625 -13.640625 18.671875 -11.390625 C 18.671875 -8.585938 18.226562 -6.378906 17.34375 -4.765625 C 16.476562 -3.046875 15.222656 -2.1875 13.578125 -2.1875 C 11.984375 -2.1875 10.519531 -2.550781 9.1875 -3.28125 C 8.269531 -3.851562 7.539062 -4.535156 7 -5.328125 C 6.9375 -6.828125 6.921875 -8.367188 6.953125 -9.953125 C 6.953125 -11.953125 6.96875 -13.6875 7 -15.15625 Z M 7 -15.15625 "/></g></g></g><g fill="#024927" fill-opacity="1"><g transform="translate(138.269989, 79.085218)"><g><path d="M 20.859375 -1.328125 C 20.191406 -4.378906 19.859375 -8.066406 19.859375 -12.390625 C 19.859375 -15.242188 20.019531 -17.5 20.34375 -19.15625 C 20.34375 -19.789062 20.070312 -20.34375 19.53125 -20.8125 C 18.957031 -21.351562 18.429688 -21.625 17.953125 -21.625 C 17.515625 -21.625 17.164062 -21.421875 16.90625 -21.015625 C 16.65625 -20.503906 16.5625 -19.785156 16.625 -18.859375 C 15.257812 -20.515625 13.5625 -21.359375 11.53125 -21.390625 C 9.082031 -21.390625 7.050781 -20.242188 5.4375 -17.953125 C 3.8125 -15.734375 3 -12.78125 3 -9.09375 C 3 -6.019531 3.757812 -3.320312 5.28125 -1 C 6.84375 1.21875 8.925781 2.328125 11.53125 2.328125 C 13.53125 2.328125 15.226562 1.535156 16.625 -0.046875 C 16.75 -0.203125 16.875 -0.328125 17 -0.421875 C 17 0.367188 17.097656 0.96875 17.296875 1.375 C 17.421875 1.601562 17.625 1.734375 17.90625 1.765625 C 18.507812 1.765625 19.128906 1.398438 19.765625 0.671875 C 20.460938 -0.160156 20.828125 -0.828125 20.859375 -1.328125 Z M 17.25 -3.765625 C 16.800781 -3.191406 16.382812 -2.648438 16 -2.140625 C 14.507812 -0.585938 13.019531 0.203125 11.53125 0.234375 C 9.90625 0.234375 8.617188 -0.570312 7.671875 -2.1875 C 6.554688 -4 6 -6.523438 6 -9.765625 C 6 -12.585938 6.523438 -14.90625 7.578125 -16.71875 C 8.554688 -18.4375 9.875 -19.296875 11.53125 -19.296875 C 12.988281 -19.296875 14.382812 -18.582031 15.71875 -17.15625 C 16.289062 -16.488281 16.847656 -15.644531 17.390625 -14.625 C 17.484375 -13.863281 17.53125 -13.117188 17.53125 -12.390625 C 17.53125 -9.148438 17.4375 -6.273438 17.25 -3.765625 Z M 17.25 -3.765625 "/></g></g></g><g fill="#024927" fill-opacity="1"><g transform="translate(160.950259, 79.085218)"><g><path d="M 3.90625 -24.8125 C 4.414062 -23.164062 4.671875 -19.132812 4.671875 -12.71875 C 4.671875 -7.289062 4.507812 -3.289062 4.1875 -0.71875 C 4.1875 0.363281 4.472656 1.191406 5.046875 1.765625 C 5.554688 2.273438 6.050781 2.53125 6.53125 2.53125 C 6.84375 2.53125 7.238281 2.226562 7.71875 1.625 C 8.132812 0.894531 8.359375 0.226562 8.390625 -0.375 C 7.648438 -3.238281 7.28125 -7.351562 7.28125 -12.71875 C 7.28125 -16.40625 7.632812 -20.28125 8.34375 -24.34375 C 8.34375 -24.976562 8.117188 -25.488281 7.671875 -25.875 C 7.003906 -26.4375 6.445312 -26.71875 6 -26.71875 C 5.519531 -26.71875 5.015625 -26.484375 4.484375 -26.015625 C 4.035156 -25.597656 3.84375 -25.195312 3.90625 -24.8125 Z M 3.90625 -24.8125 "/></g></g></g><g fill="#024927" fill-opacity="1"><g transform="translate(171.436697, 79.085218)"><g><path d="M 6.09375 -17.765625 C 4.320312 -15.359375 3.4375 -12.3125 3.4375 -8.625 C 3.4375 -5.289062 4.195312 -2.65625 5.71875 -0.71875 C 7.269531 1.28125 9.664062 2.28125 12.90625 2.28125 C 15.132812 2.28125 17.148438 1.773438 18.953125 0.765625 C 20.222656 -0.0546875 21.128906 -1.3125 21.671875 -3 C 21.867188 -3.914062 21.835938 -4.757812 21.578125 -5.53125 C 21.328125 -6.539062 21.007812 -6.617188 20.625 -5.765625 C 20.050781 -4.492188 19.113281 -3.253906 17.8125 -2.046875 C 16.289062 -0.679688 14.65625 0.015625 12.90625 0.046875 C 10.90625 0.046875 9.285156 -0.8125 8.046875 -2.53125 C 6.941406 -4.113281 6.390625 -6.128906 6.390625 -8.578125 C 8.765625 -9.210938 10.765625 -9.515625 12.390625 -9.484375 C 14.128906 -9.546875 15.921875 -9.398438 17.765625 -9.046875 C 19.191406 -9.046875 20.304688 -9.363281 21.109375 -10 C 21.609375 -10.539062 21.859375 -11.507812 21.859375 -12.90625 C 21.859375 -13.632812 21.398438 -14.78125 20.484375 -16.34375 C 19.273438 -18.050781 18.035156 -19.304688 16.765625 -20.109375 C 15.722656 -20.640625 14.359375 -20.890625 12.671875 -20.859375 C 10.003906 -20.859375 7.8125 -19.828125 6.09375 -17.765625 Z M 12.671875 -18.90625 C 14.390625 -18.90625 15.847656 -18.082031 17.046875 -16.4375 C 18.035156 -15.164062 18.546875 -13.847656 18.578125 -12.484375 C 18.578125 -11.878906 18.367188 -11.5625 17.953125 -11.53125 L 6.578125 -11.34375 C 6.796875 -12.863281 7.269531 -14.257812 8 -15.53125 C 9.53125 -17.78125 11.085938 -18.90625 12.671875 -18.90625 Z M 12.671875 -18.90625 "/></g></g></g><g fill="#024927" fill-opacity="1"><g transform="translate(194.879083, 79.085218)"><g><path d="M 11.140625 -19.390625 C 9.554688 -19.390625 8.304688 -19.195312 7.390625 -18.8125 C 6.648438 -18.59375 5.984375 -18.023438 5.390625 -17.109375 C 4.753906 -16.148438 4.453125 -15.082031 4.484375 -13.90625 C 4.484375 -12.632812 4.765625 -11.554688 5.328125 -10.671875 C 5.835938 -9.878906 6.488281 -9.335938 7.28125 -9.046875 C 8.425781 -8.640625 10.378906 -8.421875 13.140625 -8.390625 C 14.703125 -8.390625 15.863281 -8.085938 16.625 -7.484375 C 17.226562 -6.972656 17.546875 -6.003906 17.578125 -4.578125 C 17.578125 -3.140625 17.050781 -1.992188 16 -1.140625 C 14.988281 -0.285156 13.703125 0.140625 12.140625 0.140625 C 11.097656 0.140625 10.066406 -0.113281 9.046875 -0.625 C 8.097656 -1.09375 7.304688 -1.835938 6.671875 -2.859375 C 6.128906 -3.429688 5.601562 -3.6875 5.09375 -3.625 C 4.65625 -3.59375 4.195312 -3.429688 3.71875 -3.140625 C 3.363281 -2.921875 3.203125 -2.648438 3.234375 -2.328125 C 3.265625 -2.015625 3.378906 -1.695312 3.578125 -1.375 C 3.890625 -0.707031 4.664062 0.0507812 5.90625 0.90625 C 7.457031 1.851562 9.535156 2.328125 12.140625 2.328125 C 14.742188 2.328125 16.78125 1.757812 18.25 0.625 C 19.988281 -0.78125 20.875 -2.6875 20.90625 -5.09375 C 20.90625 -6.96875 20.367188 -8.398438 19.296875 -9.390625 C 18.335938 -10.304688 17.207031 -10.75 15.90625 -10.71875 C 15.269531 -10.71875 14.507812 -10.71875 13.625 -10.71875 C 12.800781 -10.71875 11.941406 -10.71875 11.046875 -10.71875 C 9.835938 -10.71875 9.015625 -11.050781 8.578125 -11.71875 C 8.128906 -12.382812 7.90625 -13.113281 7.90625 -13.90625 C 7.90625 -15.144531 8.207031 -16.035156 8.8125 -16.578125 C 9.320312 -16.960938 10.097656 -17.15625 11.140625 -17.15625 C 12.578125 -17.15625 14.976562 -16.535156 18.34375 -15.296875 C 18.945312 -15.066406 19.4375 -15.253906 19.8125 -15.859375 C 20.320312 -16.523438 20.722656 -17.238281 21.015625 -18 C 21.203125 -18.664062 21.007812 -18.953125 20.4375 -18.859375 C 19.894531 -18.828125 18.957031 -18.828125 17.625 -18.859375 C 17.175781 -18.859375 16.492188 -18.941406 15.578125 -19.109375 C 14.273438 -19.296875 12.796875 -19.390625 11.140625 -19.390625 Z M 11.140625 -19.390625 "/></g></g></g><g fill="#024927" fill-opacity="1"><g transform="translate(217.559354, 79.085218)"><g><path d="M 9.484375 -15.578125 C 9.390625 -12.585938 9.257812 -8.875 9.09375 -4.4375 C 9.09375 -2.144531 9.648438 -0.394531 10.765625 0.8125 C 11.648438 1.789062 12.90625 2.296875 14.53125 2.328125 C 15.507812 2.328125 16.460938 2.023438 17.390625 1.421875 C 18.242188 0.859375 18.878906 0.175781 19.296875 -0.625 C 19.804688 -1.382812 20.15625 -2.351562 20.34375 -3.53125 C 20.46875 -4.925781 20.117188 -5.082031 19.296875 -4 C 18.753906 -3.144531 18.117188 -2.414062 17.390625 -1.8125 C 16.273438 -1.050781 15.320312 -0.671875 14.53125 -0.671875 C 13.476562 -0.671875 12.796875 -1.207031 12.484375 -2.28125 C 12.128906 -3.332031 11.96875 -5.269531 12 -8.09375 C 12 -11.019531 12.082031 -13.578125 12.25 -15.765625 C 13.800781 -15.671875 15.351562 -15.335938 16.90625 -14.765625 C 17.414062 -14.921875 17.925781 -15.269531 18.4375 -15.8125 C 18.945312 -16.445312 19.28125 -17.050781 19.4375 -17.625 C 19.5625 -18.351562 19.289062 -18.5625 18.625 -18.25 C 16.53125 -17.769531 14.453125 -17.484375 12.390625 -17.390625 C 12.671875 -20.441406 13.160156 -22.804688 13.859375 -24.484375 C 13.796875 -25.054688 13.539062 -25.566406 13.09375 -26.015625 C 12.082031 -26.835938 11.304688 -27.234375 10.765625 -27.203125 C 10.316406 -27.171875 9.875 -26.976562 9.4375 -26.625 C 8.988281 -26.25 8.78125 -25.882812 8.8125 -25.53125 C 9.320312 -24.195312 9.578125 -22.4375 9.578125 -20.25 C 9.578125 -19.351562 9.5625 -18.320312 9.53125 -17.15625 C 7.75 -17.050781 6.507812 -17.351562 5.8125 -18.0625 C 5.144531 -18.125 4.523438 -17.753906 3.953125 -16.953125 C 3.378906 -16.253906 3.140625 -15.554688 3.234375 -14.859375 C 3.265625 -14.347656 3.742188 -14.269531 4.671875 -14.625 C 6.097656 -15.070312 7.703125 -15.390625 9.484375 -15.578125 Z M 9.484375 -15.578125 "/></g></g></g><g fill="#024927" fill-opacity="1"><g transform="translate(239.477504, 79.085218)"><g><path d="M 5.953125 -27.484375 C 5.222656 -27.484375 4.601562 -27.226562 4.09375 -26.71875 C 3.550781 -26.21875 3.296875 -25.597656 3.328125 -24.859375 C 3.328125 -24.160156 3.582031 -23.5625 4.09375 -23.0625 C 4.601562 -22.550781 5.222656 -22.28125 5.953125 -22.25 C 6.648438 -22.25 7.253906 -22.519531 7.765625 -23.0625 C 8.273438 -23.59375 8.546875 -24.191406 8.578125 -24.859375 C 8.578125 -25.597656 8.304688 -26.21875 7.765625 -26.71875 C 7.222656 -27.257812 6.617188 -27.515625 5.953125 -27.484375 Z M 3.4375 -18.765625 C 4.101562 -16.066406 4.4375 -12.734375 4.4375 -8.765625 C 4.4375 -5.878906 4.257812 -2.957031 3.90625 0 C 3.84375 0.851562 4.066406 1.488281 4.578125 1.90625 C 4.953125 2.289062 5.394531 2.484375 5.90625 2.484375 C 6.320312 2.515625 6.75 2.242188 7.1875 1.671875 C 7.695312 1.097656 7.96875 0.414062 8 -0.375 C 7.425781 -3.207031 7.140625 -6.003906 7.140625 -8.765625 C 7.140625 -12.066406 7.441406 -15.050781 8.046875 -17.71875 C 8.046875 -18.257812 7.695312 -18.832031 7 -19.4375 C 6.269531 -20.007812 5.679688 -20.3125 5.234375 -20.34375 C 4.890625 -20.3125 4.507812 -20.132812 4.09375 -19.8125 C 3.65625 -19.4375 3.4375 -19.085938 3.4375 -18.765625 Z M 3.4375 -18.765625 "/></g></g></g><g fill="#024927" fill-opacity="1"><g transform="translate(249.963946, 79.085218)"><g><path d="M 4.953125 -8.765625 C 4.953125 -5.109375 4.78125 -1.710938 4.4375 1.421875 C 4.363281 2.023438 4.695312 2.34375 5.4375 2.375 C 6.03125 2.375 6.695312 2.125 7.4375 1.625 C 8.132812 1.175781 8.5 0.601562 8.53125 -0.09375 C 7.988281 -3.71875 7.71875 -6.609375 7.71875 -8.765625 C 7.65625 -11.117188 7.71875 -13.101562 7.90625 -14.71875 C 8.09375 -15.007812 8.316406 -15.265625 8.578125 -15.484375 C 10.035156 -17.160156 11.8125 -17.984375 13.90625 -17.953125 C 14.894531 -17.953125 15.785156 -17.585938 16.578125 -16.859375 C 17.179688 -16.253906 17.609375 -15.332031 17.859375 -14.09375 C 18.148438 -12.664062 18.296875 -10.523438 18.296875 -7.671875 C 18.296875 -5.378906 17.976562 -2.503906 17.34375 0.953125 C 17.28125 2.003906 17.660156 2.546875 18.484375 2.578125 C 19.179688 2.578125 19.910156 2.289062 20.671875 1.71875 C 21.179688 1.332031 21.46875 0.710938 21.53125 -0.140625 C 21.34375 -3.160156 21.265625 -5.671875 21.296875 -7.671875 C 21.296875 -11.066406 21.148438 -13.476562 20.859375 -14.90625 C 20.609375 -16.40625 19.910156 -17.691406 18.765625 -18.765625 C 17.460938 -20.066406 15.84375 -20.703125 13.90625 -20.671875 C 12.226562 -20.671875 10.625 -20.035156 9.09375 -18.765625 C 8.90625 -18.640625 8.71875 -18.46875 8.53125 -18.25 C 8.625 -18.59375 8.734375 -18.894531 8.859375 -19.15625 C 8.859375 -19.4375 8.664062 -19.703125 8.28125 -19.953125 C 7.65625 -20.398438 7.023438 -20.625 6.390625 -20.625 C 5.753906 -20.625 5.195312 -20.398438 4.71875 -19.953125 C 4.363281 -19.640625 4.203125 -19.164062 4.234375 -18.53125 C 4.710938 -15.351562 4.953125 -12.097656 4.953125 -8.765625 Z M 4.953125 -8.765625 "/></g></g></g><g fill="#024927" fill-opacity="1"><g transform="translate(273.406331, 79.085218)"><g><path d="M 6.09375 -17.765625 C 4.320312 -15.359375 3.4375 -12.3125 3.4375 -8.625 C 3.4375 -5.289062 4.195312 -2.65625 5.71875 -0.71875 C 7.269531 1.28125 9.664062 2.28125 12.90625 2.28125 C 15.132812 2.28125 17.148438 1.773438 18.953125 0.765625 C 20.222656 -0.0546875 21.128906 -1.3125 21.671875 -3 C 21.867188 -3.914062 21.835938 -4.757812 21.578125 -5.53125 C 21.328125 -6.539062 21.007812 -6.617188 20.625 -5.765625 C 20.050781 -4.492188 19.113281 -3.253906 17.8125 -2.046875 C 16.289062 -0.679688 14.65625 0.015625 12.90625 0.046875 C 10.90625 0.046875 9.285156 -0.8125 8.046875 -2.53125 C 6.941406 -4.113281 6.390625 -6.128906 6.390625 -8.578125 C 8.765625 -9.210938 10.765625 -9.515625 12.390625 -9.484375 C 14.128906 -9.546875 15.921875 -9.398438 17.765625 -9.046875 C 19.191406 -9.046875 20.304688 -9.363281 21.109375 -10 C 21.609375 -10.539062 21.859375 -11.507812 21.859375 -12.90625 C 21.859375 -13.632812 21.398438 -14.78125 20.484375 -16.34375 C 19.273438 -18.050781 18.035156 -19.304688 16.765625 -20.109375 C 15.722656 -20.640625 14.359375 -20.890625 12.671875 -20.859375 C 10.003906 -20.859375 7.8125 -19.828125 6.09375 -17.765625 Z M 12.671875 -18.90625 C 14.390625 -18.90625 15.847656 -18.082031 17.046875 -16.4375 C 18.035156 -15.164062 18.546875 -13.847656 18.578125 -12.484375 C 18.578125 -11.878906 18.367188 -11.5625 17.953125 -11.53125 L 6.578125 -11.34375 C 6.796875 -12.863281 7.269531 -14.257812 8 -15.53125 C 9.53125 -17.78125 11.085938 -18.90625 12.671875 -18.90625 Z M 12.671875 -18.90625 "/></g></g></g><g fill="#024927" fill-opacity="1"><g transform="translate(112.62858, 118.681121)"><g><path d="M 11.140625 -19.390625 C 9.554688 -19.390625 8.304688 -19.195312 7.390625 -18.8125 C 6.648438 -18.59375 5.984375 -18.023438 5.390625 -17.109375 C 4.753906 -16.148438 4.453125 -15.082031 4.484375 -13.90625 C 4.484375 -12.632812 4.765625 -11.554688 5.328125 -10.671875 C 5.835938 -9.878906 6.488281 -9.335938 7.28125 -9.046875 C 8.425781 -8.640625 10.378906 -8.421875 13.140625 -8.390625 C 14.703125 -8.390625 15.863281 -8.085938 16.625 -7.484375 C 17.226562 -6.972656 17.546875 -6.003906 17.578125 -4.578125 C 17.578125 -3.140625 17.050781 -1.992188 16 -1.140625 C 14.988281 -0.285156 13.703125 0.140625 12.140625 0.140625 C 11.097656 0.140625 10.066406 -0.113281 9.046875 -0.625 C 8.097656 -1.09375 7.304688 -1.835938 6.671875 -2.859375 C 6.128906 -3.429688 5.601562 -3.6875 5.09375 -3.625 C 4.65625 -3.59375 4.195312 -3.429688 3.71875 -3.140625 C 3.363281 -2.921875 3.203125 -2.648438 3.234375 -2.328125 C 3.265625 -2.015625 3.378906 -1.695312 3.578125 -1.375 C 3.890625 -0.707031 4.664062 0.0507812 5.90625 0.90625 C 7.457031 1.851562 9.535156 2.328125 12.140625 2.328125 C 14.742188 2.328125 16.78125 1.757812 18.25 0.625 C 19.988281 -0.78125 20.875 -2.6875 20.90625 -5.09375 C 20.90625 -6.96875 20.367188 -8.398438 19.296875 -9.390625 C 18.335938 -10.304688 17.207031 -10.75 15.90625 -10.71875 C 15.269531 -10.71875 14.507812 -10.71875 13.625 -10.71875 C 12.800781 -10.71875 11.941406 -10.71875 11.046875 -10.71875 C 9.835938 -10.71875 9.015625 -11.050781 8.578125 -11.71875 C 8.128906 -12.382812 7.90625 -13.113281 7.90625 -13.90625 C 7.90625 -15.144531 8.207031 -16.035156 8.8125 -16.578125 C 9.320312 -16.960938 10.097656 -17.15625 11.140625 -17.15625 C 12.578125 -17.15625 14.976562 -16.535156 18.34375 -15.296875 C 18.945312 -15.066406 19.4375 -15.253906 19.8125 -15.859375 C 20.320312 -16.523438 20.722656 -17.238281 21.015625 -18 C 21.203125 -18.664062 21.007812 -18.953125 20.4375 -18.859375 C 19.894531 -18.828125 18.957031 -18.828125 17.625 -18.859375 C 17.175781 -18.859375 16.492188 -18.941406 15.578125 -19.109375 C 14.273438 -19.296875 12.796875 -19.390625 11.140625 -19.390625 Z M 11.140625 -19.390625 "/></g></g></g><g fill="#024927" fill-opacity="1"><g transform="translate(135.30885, 118.681121)"><g><path d="M 3.375 -9.34375 C 3.375 -6.289062 4.171875 -3.554688 5.765625 -1.140625 C 7.222656 1.171875 9.300781 2.328125 12 2.328125 C 14.664062 2.328125 16.875 0.960938 18.625 -1.765625 C 20.050781 -4.015625 20.765625 -6.664062 20.765625 -9.71875 C 20.765625 -12.164062 20.273438 -14.34375 19.296875 -16.25 C 18.566406 -17.675781 17.328125 -18.847656 15.578125 -19.765625 C 14.753906 -20.210938 14.195312 -20.5625 13.90625 -20.8125 C 13.71875 -21.007812 13.5625 -21.109375 13.4375 -21.109375 C 13.34375 -21.171875 13.210938 -21.15625 13.046875 -21.0625 C 12.796875 -20.957031 12.546875 -20.988281 12.296875 -21.15625 C 12.035156 -21.3125 11.84375 -21.390625 11.71875 -21.390625 C 11.46875 -21.390625 11.242188 -21.226562 11.046875 -20.90625 C 10.859375 -20.625 10.539062 -20.4375 10.09375 -20.34375 C 8.03125 -19.863281 6.425781 -18.785156 5.28125 -17.109375 C 3.976562 -15.097656 3.34375 -12.507812 3.375 -9.34375 Z M 6.328125 -9.953125 C 6.328125 -12.148438 6.710938 -14.070312 7.484375 -15.71875 C 8.085938 -17.144531 8.910156 -17.957031 9.953125 -18.15625 C 10.742188 -18.3125 11.472656 -18.34375 12.140625 -18.25 C 13.003906 -18.125 13.785156 -17.914062 14.484375 -17.625 C 15.148438 -17.40625 15.816406 -16.707031 16.484375 -15.53125 C 17.367188 -14.007812 17.8125 -12.070312 17.8125 -9.71875 C 17.8125 -7.238281 17.273438 -5.03125 16.203125 -3.09375 C 14.992188 -0.96875 13.59375 0.09375 12 0.09375 C 10.382812 0.09375 9.035156 -0.875 7.953125 -2.8125 C 6.835938 -4.71875 6.296875 -7.097656 6.328125 -9.953125 Z M 6.328125 -9.953125 "/></g></g></g><g fill="#024927" fill-opacity="1"><g transform="translate(157.227005, 118.681121)"><g><path d="M 3.90625 -24.8125 C 4.414062 -23.164062 4.671875 -19.132812 4.671875 -12.71875 C 4.671875 -7.289062 4.507812 -3.289062 4.1875 -0.71875 C 4.1875 0.363281 4.472656 1.191406 5.046875 1.765625 C 5.554688 2.273438 6.050781 2.53125 6.53125 2.53125 C 6.84375 2.53125 7.238281 2.226562 7.71875 1.625 C 8.132812 0.894531 8.359375 0.226562 8.390625 -0.375 C 7.648438 -3.238281 7.28125 -7.351562 7.28125 -12.71875 C 7.28125 -16.40625 7.632812 -20.28125 8.34375 -24.34375 C 8.34375 -24.976562 8.117188 -25.488281 7.671875 -25.875 C 7.003906 -26.4375 6.445312 -26.71875 6 -26.71875 C 5.519531 -26.71875 5.015625 -26.484375 4.484375 -26.015625 C 4.035156 -25.597656 3.84375 -25.195312 3.90625 -24.8125 Z M 3.90625 -24.8125 "/></g></g></g><g fill="#024927" fill-opacity="1"><g transform="translate(167.713443, 118.681121)"><g><path d="M 5.953125 -27.484375 C 5.222656 -27.484375 4.601562 -27.226562 4.09375 -26.71875 C 3.550781 -26.21875 3.296875 -25.597656 3.328125 -24.859375 C 3.328125 -24.160156 3.582031 -23.5625 4.09375 -23.0625 C 4.601562 -22.550781 5.222656 -22.28125 5.953125 -22.25 C 6.648438 -22.25 7.253906 -22.519531 7.765625 -23.0625 C 8.273438 -23.59375 8.546875 -24.191406 8.578125 -24.859375 C 8.578125 -25.597656 8.304688 -26.21875 7.765625 -26.71875 C 7.222656 -27.257812 6.617188 -27.515625 5.953125 -27.484375 Z M 3.4375 -18.765625 C 4.101562 -16.066406 4.4375 -12.734375 4.4375 -8.765625 C 4.4375 -5.878906 4.257812 -2.957031 3.90625 0 C 3.84375 0.851562 4.066406 1.488281 4.578125 1.90625 C 4.953125 2.289062 5.394531 2.484375 5.90625 2.484375 C 6.320312 2.515625 6.75 2.242188 7.1875 1.671875 C 7.695312 1.097656 7.96875 0.414062 8 -0.375 C 7.425781 -3.207031 7.140625 -6.003906 7.140625 -8.765625 C 7.140625 -12.066406 7.441406 -15.050781 8.046875 -17.71875 C 8.046875 -18.257812 7.695312 -18.832031 7 -19.4375 C 6.269531 -20.007812 5.679688 -20.3125 5.234375 -20.34375 C 4.890625 -20.3125 4.507812 -20.132812 4.09375 -19.8125 C 3.65625 -19.4375 3.4375 -19.085938 3.4375 -18.765625 Z M 3.4375 -18.765625 "/></g></g></g><g fill="#024927" fill-opacity="1"><g transform="translate(178.199884, 118.681121)"><g><path d="M 20.8125 -12.140625 C 20.8125 -18.816406 21.050781 -22.707031 21.53125 -23.8125 C 21.75 -24.476562 21.875 -24.957031 21.90625 -25.25 C 21.84375 -25.625 21.5625 -26.050781 21.0625 -26.53125 C 19.945312 -27.351562 19.101562 -27.765625 18.53125 -27.765625 C 18.082031 -27.765625 17.703125 -27.625 17.390625 -27.34375 C 17.035156 -27.03125 16.890625 -26.585938 16.953125 -26.015625 C 17.722656 -24.546875 18.171875 -21.828125 18.296875 -17.859375 C 17.847656 -18.304688 17.382812 -18.707031 16.90625 -19.0625 C 15.382812 -20.164062 13.75 -20.71875 12 -20.71875 C 9.269531 -20.71875 7.066406 -19.53125 5.390625 -17.15625 C 3.859375 -14.925781 3.09375 -12.128906 3.09375 -8.765625 C 3.09375 -5.585938 3.96875 -2.90625 5.71875 -0.71875 C 7.269531 1.3125 9.460938 2.328125 12.296875 2.328125 C 13.941406 2.328125 15.640625 1.597656 17.390625 0.140625 C 17.515625 0.554688 17.738281 0.953125 18.0625 1.328125 C 18.46875 1.835938 18.878906 2.09375 19.296875 2.09375 C 19.515625 2.09375 19.878906 1.726562 20.390625 1 C 21.085938 0.0820312 21.4375 -0.691406 21.4375 -1.328125 C 20.988281 -3.585938 20.78125 -7.191406 20.8125 -12.140625 Z M 17.625 -3.375 C 17.5625 -3.34375 17.53125 -3.296875 17.53125 -3.234375 C 15.84375 -1.296875 14.097656 -0.3125 12.296875 -0.28125 C 10.421875 -0.28125 8.925781 -1.09375 7.8125 -2.71875 C 6.664062 -4.5 6.09375 -6.691406 6.09375 -9.296875 C 6.09375 -11.640625 6.601562 -13.640625 7.625 -15.296875 C 8.695312 -17.171875 10.15625 -18.109375 12 -18.109375 C 13.363281 -18.109375 14.921875 -17.457031 16.671875 -16.15625 C 17.242188 -15.675781 17.785156 -15.101562 18.296875 -14.4375 C 18.234375 -10.300781 18.007812 -6.613281 17.625 -3.375 Z M 17.625 -3.375 "/></g></g></g><g fill="#024927" fill-opacity="1"><g transform="translate(202.404384, 118.681121)"><g><path d="M 20.859375 -1.328125 C 20.191406 -4.378906 19.859375 -8.066406 19.859375 -12.390625 C 19.859375 -15.242188 20.019531 -17.5 20.34375 -19.15625 C 20.34375 -19.789062 20.070312 -20.34375 19.53125 -20.8125 C 18.957031 -21.351562 18.429688 -21.625 17.953125 -21.625 C 17.515625 -21.625 17.164062 -21.421875 16.90625 -21.015625 C 16.65625 -20.503906 16.5625 -19.785156 16.625 -18.859375 C 15.257812 -20.515625 13.5625 -21.359375 11.53125 -21.390625 C 9.082031 -21.390625 7.050781 -20.242188 5.4375 -17.953125 C 3.8125 -15.734375 3 -12.78125 3 -9.09375 C 3 -6.019531 3.757812 -3.320312 5.28125 -1 C 6.84375 1.21875 8.925781 2.328125 11.53125 2.328125 C 13.53125 2.328125 15.226562 1.535156 16.625 -0.046875 C 16.75 -0.203125 16.875 -0.328125 17 -0.421875 C 17 0.367188 17.097656 0.96875 17.296875 1.375 C 17.421875 1.601562 17.625 1.734375 17.90625 1.765625 C 18.507812 1.765625 19.128906 1.398438 19.765625 0.671875 C 20.460938 -0.160156 20.828125 -0.828125 20.859375 -1.328125 Z M 17.25 -3.765625 C 16.800781 -3.191406 16.382812 -2.648438 16 -2.140625 C 14.507812 -0.585938 13.019531 0.203125 11.53125 0.234375 C 9.90625 0.234375 8.617188 -0.570312 7.671875 -2.1875 C 6.554688 -4 6 -6.523438 6 -9.765625 C 6 -12.585938 6.523438 -14.90625 7.578125 -16.71875 C 8.554688 -18.4375 9.875 -19.296875 11.53125 -19.296875 C 12.988281 -19.296875 14.382812 -18.582031 15.71875 -17.15625 C 16.289062 -16.488281 16.847656 -15.644531 17.390625 -14.625 C 17.484375 -13.863281 17.53125 -13.117188 17.53125 -12.390625 C 17.53125 -9.148438 17.4375 -6.273438 17.25 -3.765625 Z M 17.25 -3.765625 "/></g></g></g><g fill="#024927" fill-opacity="1"><g transform="translate(225.084649, 118.681121)"><g><path d="M 8.1875 -0.140625 C 7.550781 -3.066406 7.171875 -6.957031 7.046875 -11.8125 C 7.335938 -13.050781 7.71875 -14.066406 8.1875 -14.859375 C 9.363281 -16.953125 10.796875 -18 12.484375 -18 C 13.660156 -18 14.660156 -17.367188 15.484375 -16.109375 C 15.859375 -15.597656 16.238281 -15.3125 16.625 -15.25 C 16.945312 -15.21875 17.3125 -15.453125 17.71875 -15.953125 C 18.132812 -16.492188 18.328125 -17.082031 18.296875 -17.71875 C 18.234375 -18.445312 17.929688 -18.988281 17.390625 -19.34375 C 15.796875 -20.382812 14.347656 -20.90625 13.046875 -20.90625 C 11.242188 -20.90625 9.625 -19.988281 8.1875 -18.15625 C 7.75 -17.675781 7.367188 -17.132812 7.046875 -16.53125 C 7.140625 -17.675781 7.425781 -18.867188 7.90625 -20.109375 C 7.90625 -20.835938 7.648438 -21.203125 7.140625 -21.203125 C 6.410156 -21.265625 5.632812 -21.101562 4.8125 -20.71875 C 4.082031 -20.40625 3.734375 -19.914062 3.765625 -19.25 C 4.367188 -16.007812 4.6875 -12.785156 4.71875 -9.578125 C 4.71875 -6.109375 4.523438 -2.960938 4.140625 -0.140625 C 4.078125 0.742188 4.238281 1.425781 4.625 1.90625 C 4.84375 2.21875 5.269531 2.390625 5.90625 2.421875 C 6.414062 2.421875 6.957031 2.070312 7.53125 1.375 C 7.9375 0.8125 8.15625 0.304688 8.1875 -0.140625 Z M 8.1875 -0.140625 "/></g></g></g><g fill="#024927" fill-opacity="1"><g transform="translate(243.954349, 118.681121)"><g><path d="M 5.953125 -27.484375 C 5.222656 -27.484375 4.601562 -27.226562 4.09375 -26.71875 C 3.550781 -26.21875 3.296875 -25.597656 3.328125 -24.859375 C 3.328125 -24.160156 3.582031 -23.5625 4.09375 -23.0625 C 4.601562 -22.550781 5.222656 -22.28125 5.953125 -22.25 C 6.648438 -22.25 7.253906 -22.519531 7.765625 -23.0625 C 8.273438 -23.59375 8.546875 -24.191406 8.578125 -24.859375 C 8.578125 -25.597656 8.304688 -26.21875 7.765625 -26.71875 C 7.222656 -27.257812 6.617188 -27.515625 5.953125 -27.484375 Z M 3.4375 -18.765625 C 4.101562 -16.066406 4.4375 -12.734375 4.4375 -8.765625 C 4.4375 -5.878906 4.257812 -2.957031 3.90625 0 C 3.84375 0.851562 4.066406 1.488281 4.578125 1.90625 C 4.953125 2.289062 5.394531 2.484375 5.90625 2.484375 C 6.320312 2.515625 6.75 2.242188 7.1875 1.671875 C 7.695312 1.097656 7.96875 0.414062 8 -0.375 C 7.425781 -3.207031 7.140625 -6.003906 7.140625 -8.765625 C 7.140625 -12.066406 7.441406 -15.050781 8.046875 -17.71875 C 8.046875 -18.257812 7.695312 -18.832031 7 -19.4375 C 6.269531 -20.007812 5.679688 -20.3125 5.234375 -20.34375 C 4.890625 -20.3125 4.507812 -20.132812 4.09375 -19.8125 C 3.65625 -19.4375 3.4375 -19.085938 3.4375 -18.765625 Z M 3.4375 -18.765625 "/></g></g></g><g fill="#024927" fill-opacity="1"><g transform="translate(254.44079, 118.681121)"><g><path d="M 9.484375 -15.578125 C 9.390625 -12.585938 9.257812 -8.875 9.09375 -4.4375 C 9.09375 -2.144531 9.648438 -0.394531 10.765625 0.8125 C 11.648438 1.789062 12.90625 2.296875 14.53125 2.328125 C 15.507812 2.328125 16.460938 2.023438 17.390625 1.421875 C 18.242188 0.859375 18.878906 0.175781 19.296875 -0.625 C 19.804688 -1.382812 20.15625 -2.351562 20.34375 -3.53125 C 20.46875 -4.925781 20.117188 -5.082031 19.296875 -4 C 18.753906 -3.144531 18.117188 -2.414062 17.390625 -1.8125 C 16.273438 -1.050781 15.320312 -0.671875 14.53125 -0.671875 C 13.476562 -0.671875 12.796875 -1.207031 12.484375 -2.28125 C 12.128906 -3.332031 11.96875 -5.269531 12 -8.09375 C 12 -11.019531 12.082031 -13.578125 12.25 -15.765625 C 13.800781 -15.671875 15.351562 -15.335938 16.90625 -14.765625 C 17.414062 -14.921875 17.925781 -15.269531 18.4375 -15.8125 C 18.945312 -16.445312 19.28125 -17.050781 19.4375 -17.625 C 19.5625 -18.351562 19.289062 -18.5625 18.625 -18.25 C 16.53125 -17.769531 14.453125 -17.484375 12.390625 -17.390625 C 12.671875 -20.441406 13.160156 -22.804688 13.859375 -24.484375 C 13.796875 -25.054688 13.539062 -25.566406 13.09375 -26.015625 C 12.082031 -26.835938 11.304688 -27.234375 10.765625 -27.203125 C 10.316406 -27.171875 9.875 -26.976562 9.4375 -26.625 C 8.988281 -26.25 8.78125 -25.882812 8.8125 -25.53125 C 9.320312 -24.195312 9.578125 -22.4375 9.578125 -20.25 C 9.578125 -19.351562 9.5625 -18.320312 9.53125 -17.15625 C 7.75 -17.050781 6.507812 -17.351562 5.8125 -18.0625 C 5.144531 -18.125 4.523438 -17.753906 3.953125 -16.953125 C 3.378906 -16.253906 3.140625 -15.554688 3.234375 -14.859375 C 3.265625 -14.347656 3.742188 -14.269531 4.671875 -14.625 C 6.097656 -15.070312 7.703125 -15.390625 9.484375 -15.578125 Z M 9.484375 -15.578125 "/></g></g></g><g fill="#024927" fill-opacity="1"><g transform="translate(276.358947, 118.681121)"><g><path d="M 4.1875 -21.484375 C 4.945312 -20.210938 5.644531 -18.304688 6.28125 -15.765625 C 7.363281 -11.097656 9.175781 -6.554688 11.71875 -2.140625 C 11.144531 -0.203125 10.476562 1.335938 9.71875 2.484375 C 8.800781 3.847656 7.832031 4.546875 6.8125 4.578125 C 5.664062 4.484375 4.539062 4.035156 3.4375 3.234375 C 2.894531 2.796875 2.539062 2.8125 2.375 3.28125 C 2.21875 3.601562 2.363281 4.066406 2.8125 4.671875 C 3.851562 6.671875 5.441406 7.75 7.578125 7.90625 C 9.097656 7.90625 10.367188 7.128906 11.390625 5.578125 C 12.242188 3.859375 13.019531 1.742188 13.71875 -0.765625 C 15.5625 -6.640625 17.132812 -11.878906 18.4375 -16.484375 C 19.007812 -18.546875 19.722656 -19.957031 20.578125 -20.71875 C 21.847656 -21.257812 22.023438 -21.800781 21.109375 -22.34375 C 20.378906 -22.789062 19.660156 -23 18.953125 -22.96875 C 18.285156 -23.03125 17.617188 -22.835938 16.953125 -22.390625 C 16.285156 -21.972656 15.90625 -21.414062 15.8125 -20.71875 C 15.238281 -16.300781 14.382812 -11.222656 13.25 -5.484375 C 12.957031 -5.003906 12.6875 -5.035156 12.4375 -5.578125 C 11.320312 -8.617188 10.492188 -11.585938 9.953125 -14.484375 C 9.515625 -17.023438 9.328125 -19.023438 9.390625 -20.484375 C 9.421875 -21.398438 9.101562 -22.050781 8.4375 -22.4375 C 7.707031 -22.882812 6.988281 -23.09375 6.28125 -23.0625 C 5.550781 -23.0625 4.882812 -22.820312 4.28125 -22.34375 C 3.9375 -22.125 3.90625 -21.835938 4.1875 -21.484375 Z M 4.1875 -21.484375 "/></g></g></g><g fill="#024927" fill-opacity="1"><g transform="translate(134.457436, 158.277025)"><g><path d="M 20.859375 -1.328125 C 20.191406 -4.378906 19.859375 -8.066406 19.859375 -12.390625 C 19.859375 -15.242188 20.019531 -17.5 20.34375 -19.15625 C 20.34375 -19.789062 20.070312 -20.34375 19.53125 -20.8125 C 18.957031 -21.351562 18.429688 -21.625 17.953125 -21.625 C 17.515625 -21.625 17.164062 -21.421875 16.90625 -21.015625 C 16.65625 -20.503906 16.5625 -19.785156 16.625 -18.859375 C 15.257812 -20.515625 13.5625 -21.359375 11.53125 -21.390625 C 9.082031 -21.390625 7.050781 -20.242188 5.4375 -17.953125 C 3.8125 -15.734375 3 -12.78125 3 -9.09375 C 3 -6.019531 3.757812 -3.320312 5.28125 -1 C 6.84375 1.21875 8.925781 2.328125 11.53125 2.328125 C 13.53125 2.328125 15.226562 1.535156 16.625 -0.046875 C 16.75 -0.203125 16.875 -0.328125 17 -0.421875 C 17 0.367188 17.097656 0.96875 17.296875 1.375 C 17.421875 1.601562 17.625 1.734375 17.90625 1.765625 C 18.507812 1.765625 19.128906 1.398438 19.765625 0.671875 C 20.460938 -0.160156 20.828125 -0.828125 20.859375 -1.328125 Z M 17.25 -3.765625 C 16.800781 -3.191406 16.382812 -2.648438 16 -2.140625 C 14.507812 -0.585938 13.019531 0.203125 11.53125 0.234375 C 9.90625 0.234375 8.617188 -0.570312 7.671875 -2.1875 C 6.554688 -4 6 -6.523438 6 -9.765625 C 6 -12.585938 6.523438 -14.90625 7.578125 -16.71875 C 8.554688 -18.4375 9.875 -19.296875 11.53125 -19.296875 C 12.988281 -19.296875 14.382812 -18.582031 15.71875 -17.15625 C 16.289062 -16.488281 16.847656 -15.644531 17.390625 -14.625 C 17.484375 -13.863281 17.53125 -13.117188 17.53125 -12.390625 C 17.53125 -9.148438 17.4375 -6.273438 17.25 -3.765625 Z M 17.25 -3.765625 "/></g></g></g><g fill="#024927" fill-opacity="1"><g transform="translate(157.137705, 158.277025)"><g><path d="M 8.1875 -0.140625 C 7.550781 -3.066406 7.171875 -6.957031 7.046875 -11.8125 C 7.335938 -13.050781 7.71875 -14.066406 8.1875 -14.859375 C 9.363281 -16.953125 10.796875 -18 12.484375 -18 C 13.660156 -18 14.660156 -17.367188 15.484375 -16.109375 C 15.859375 -15.597656 16.238281 -15.3125 16.625 -15.25 C 16.945312 -15.21875 17.3125 -15.453125 17.71875 -15.953125 C 18.132812 -16.492188 18.328125 -17.082031 18.296875 -17.71875 C 18.234375 -18.445312 17.929688 -18.988281 17.390625 -19.34375 C 15.796875 -20.382812 14.347656 -20.90625 13.046875 -20.90625 C 11.242188 -20.90625 9.625 -19.988281 8.1875 -18.15625 C 7.75 -17.675781 7.367188 -17.132812 7.046875 -16.53125 C 7.140625 -17.675781 7.425781 -18.867188 7.90625 -20.109375 C 7.90625 -20.835938 7.648438 -21.203125 7.140625 -21.203125 C 6.410156 -21.265625 5.632812 -21.101562 4.8125 -20.71875 C 4.082031 -20.40625 3.734375 -19.914062 3.765625 -19.25 C 4.367188 -16.007812 4.6875 -12.785156 4.71875 -9.578125 C 4.71875 -6.109375 4.523438 -2.960938 4.140625 -0.140625 C 4.078125 0.742188 4.238281 1.425781 4.625 1.90625 C 4.84375 2.21875 5.269531 2.390625 5.90625 2.421875 C 6.414062 2.421875 6.957031 2.070312 7.53125 1.375 C 7.9375 0.8125 8.15625 0.304688 8.1875 -0.140625 Z M 8.1875 -0.140625 "/></g></g></g><g fill="#024927" fill-opacity="1"><g transform="translate(176.007403, 158.277025)"><g><path d="M 12.390625 -21.390625 C 9.648438 -21.390625 7.425781 -20.195312 5.71875 -17.8125 C 4.03125 -15.5 3.1875 -12.484375 3.1875 -8.765625 C 3.1875 -5.679688 3.984375 -3.046875 5.578125 -0.859375 C 7.128906 1.234375 9.554688 2.28125 12.859375 2.28125 C 14.703125 2.28125 16.53125 1.644531 18.34375 0.375 C 19.195312 -0.1875 19.816406 -1.023438 20.203125 -2.140625 C 20.578125 -3.253906 20.59375 -4.476562 20.25 -5.8125 C 19.863281 -7.144531 19.429688 -7.222656 18.953125 -6.046875 C 18.285156 -4.304688 17.414062 -2.941406 16.34375 -1.953125 C 15.101562 -0.867188 13.941406 -0.3125 12.859375 -0.28125 C 10.703125 -0.28125 9.035156 -1.125 7.859375 -2.8125 C 6.710938 -4.425781 6.140625 -6.710938 6.140625 -9.671875 C 6.140625 -12.398438 6.789062 -14.71875 8.09375 -16.625 C 9.144531 -18.3125 10.578125 -19.15625 12.390625 -19.15625 C 13.460938 -19.15625 14.445312 -18.789062 15.34375 -18.0625 C 16.226562 -17.351562 16.894531 -16.207031 17.34375 -14.625 C 17.65625 -13.351562 18.257812 -13.210938 19.15625 -14.203125 C 19.757812 -14.929688 20.203125 -15.691406 20.484375 -16.484375 C 20.609375 -16.859375 20.515625 -17.207031 20.203125 -17.53125 C 18.703125 -18.957031 17.382812 -19.957031 16.25 -20.53125 C 15.007812 -21.101562 13.722656 -21.390625 12.390625 -21.390625 Z M 12.390625 -21.390625 "/></g></g></g><g fill="#024927" fill-opacity="1"><g transform="translate(197.925557, 158.277025)"><g><path d="M 4.4375 -13.671875 C 4.4375 -10.117188 4.273438 -5.351562 3.953125 0.625 C 3.953125 1.789062 4.394531 2.375 5.28125 2.375 C 5.757812 2.375 6.238281 2.21875 6.71875 1.90625 C 7.226562 1.457031 7.484375 1.03125 7.484375 0.625 C 6.847656 -2.875 6.5625 -7.578125 6.625 -13.484375 C 7.320312 -14.492188 7.988281 -15.300781 8.625 -15.90625 C 10.050781 -17.113281 11.640625 -17.71875 13.390625 -17.71875 C 14.722656 -17.71875 15.816406 -17.160156 16.671875 -16.046875 C 17.367188 -15.066406 17.71875 -13.320312 17.71875 -10.8125 C 17.75 -7.382812 17.5625 -3.445312 17.15625 1 C 17.15625 1.882812 17.503906 2.34375 18.203125 2.375 C 18.703125 2.375 19.207031 2.1875 19.71875 1.8125 C 20.132812 1.363281 20.359375 0.742188 20.390625 -0.046875 C 20.421875 -3.253906 20.390625 -6.84375 20.296875 -10.8125 C 20.296875 -14.6875 19.753906 -17.210938 18.671875 -18.390625 C 17.429688 -19.816406 15.84375 -20.53125 13.90625 -20.53125 C 11.625 -20.53125 9.75 -19.894531 8.28125 -18.625 C 7.71875 -18.113281 7.195312 -17.523438 6.71875 -16.859375 C 6.84375 -20.160156 7.222656 -23.035156 7.859375 -25.484375 C 7.890625 -25.929688 7.601562 -26.457031 7 -27.0625 C 6.363281 -27.601562 5.921875 -27.835938 5.671875 -27.765625 C 5.378906 -27.835938 5.046875 -27.742188 4.671875 -27.484375 C 4.316406 -27.171875 4.09375 -26.742188 4 -26.203125 C 4.289062 -22.742188 4.4375 -18.566406 4.4375 -13.671875 Z M 4.4375 -13.671875 "/></g></g></g><g fill="#024927" fill-opacity="1"><g transform="translate(220.605828, 158.277025)"><g><path d="M 5.953125 -27.484375 C 5.222656 -27.484375 4.601562 -27.226562 4.09375 -26.71875 C 3.550781 -26.21875 3.296875 -25.597656 3.328125 -24.859375 C 3.328125 -24.160156 3.582031 -23.5625 4.09375 -23.0625 C 4.601562 -22.550781 5.222656 -22.28125 5.953125 -22.25 C 6.648438 -22.25 7.253906 -22.519531 7.765625 -23.0625 C 8.273438 -23.59375 8.546875 -24.191406 8.578125 -24.859375 C 8.578125 -25.597656 8.304688 -26.21875 7.765625 -26.71875 C 7.222656 -27.257812 6.617188 -27.515625 5.953125 -27.484375 Z M 3.4375 -18.765625 C 4.101562 -16.066406 4.4375 -12.734375 4.4375 -8.765625 C 4.4375 -5.878906 4.257812 -2.957031 3.90625 0 C 3.84375 0.851562 4.066406 1.488281 4.578125 1.90625 C 4.953125 2.289062 5.394531 2.484375 5.90625 2.484375 C 6.320312 2.515625 6.75 2.242188 7.1875 1.671875 C 7.695312 1.097656 7.96875 0.414062 8 -0.375 C 7.425781 -3.207031 7.140625 -6.003906 7.140625 -8.765625 C 7.140625 -12.066406 7.441406 -15.050781 8.046875 -17.71875 C 8.046875 -18.257812 7.695312 -18.832031 7 -19.4375 C 6.269531 -20.007812 5.679688 -20.3125 5.234375 -20.34375 C 4.890625 -20.3125 4.507812 -20.132812 4.09375 -19.8125 C 3.65625 -19.4375 3.4375 -19.085938 3.4375 -18.765625 Z M 3.4375 -18.765625 "/></g></g></g><g fill="#024927" fill-opacity="1"><g transform="translate(231.092269, 158.277025)"><g><path d="M 7.578125 -19.0625 C 7.515625 -19.695312 7.398438 -20.109375 7.234375 -20.296875 C 6.984375 -20.546875 6.585938 -20.5625 6.046875 -20.34375 C 4.929688 -19.832031 4.171875 -19.304688 3.765625 -18.765625 C 3.191406 -18.066406 3.097656 -17.382812 3.484375 -16.71875 C 4.367188 -14.40625 5.191406 -12.164062 5.953125 -10 C 6.648438 -7.71875 7.445312 -5.351562 8.34375 -2.90625 C 8.75 -1.820312 9.082031 -0.613281 9.34375 0.71875 C 9.53125 1.851562 10.164062 2.421875 11.25 2.421875 C 12.226562 2.421875 13.050781 2.296875 13.71875 2.046875 C 14.320312 1.796875 14.671875 1.144531 14.765625 0.09375 C 14.765625 -0.570312 14.925781 -1.269531 15.25 -2 C 16.101562 -3.6875 17.335938 -7.003906 18.953125 -11.953125 C 19.847656 -15.003906 20.675781 -17.40625 21.4375 -19.15625 C 21.75 -19.625 21.828125 -20.003906 21.671875 -20.296875 C 21.421875 -20.640625 21.054688 -20.8125 20.578125 -20.8125 C 19.566406 -20.875 18.707031 -20.71875 18 -20.34375 C 17.363281 -20.019531 16.953125 -19.445312 16.765625 -18.625 C 16.222656 -14.8125 15.664062 -11.859375 15.09375 -9.765625 C 14.332031 -7.160156 13.523438 -4.632812 12.671875 -2.1875 C 12.222656 -1.582031 11.8125 -1.582031 11.4375 -2.1875 C 10.507812 -5.71875 9.695312 -8.71875 9 -11.1875 C 8.457031 -13.382812 7.984375 -16.007812 7.578125 -19.0625 Z M 7.578125 -19.0625 "/></g></g></g><g fill="#024927" fill-opacity="1"><g transform="translate(253.772534, 158.277025)"><g><path d="M 6.09375 -17.765625 C 4.320312 -15.359375 3.4375 -12.3125 3.4375 -8.625 C 3.4375 -5.289062 4.195312 -2.65625 5.71875 -0.71875 C 7.269531 1.28125 9.664062 2.28125 12.90625 2.28125 C 15.132812 2.28125 17.148438 1.773438 18.953125 0.765625 C 20.222656 -0.0546875 21.128906 -1.3125 21.671875 -3 C 21.867188 -3.914062 21.835938 -4.757812 21.578125 -5.53125 C 21.328125 -6.539062 21.007812 -6.617188 20.625 -5.765625 C 20.050781 -4.492188 19.113281 -3.253906 17.8125 -2.046875 C 16.289062 -0.679688 14.65625 0.015625 12.90625 0.046875 C 10.90625 0.046875 9.285156 -0.8125 8.046875 -2.53125 C 6.941406 -4.113281 6.390625 -6.128906 6.390625 -8.578125 C 8.765625 -9.210938 10.765625 -9.515625 12.390625 -9.484375 C 14.128906 -9.546875 15.921875 -9.398438 17.765625 -9.046875 C 19.191406 -9.046875 20.304688 -9.363281 21.109375 -10 C 21.609375 -10.539062 21.859375 -11.507812 21.859375 -12.90625 C 21.859375 -13.632812 21.398438 -14.78125 20.484375 -16.34375 C 19.273438 -18.050781 18.035156 -19.304688 16.765625 -20.109375 C 15.722656 -20.640625 14.359375 -20.890625 12.671875 -20.859375 C 10.003906 -20.859375 7.8125 -19.828125 6.09375 -17.765625 Z M 12.671875 -18.90625 C 14.390625 -18.90625 15.847656 -18.082031 17.046875 -16.4375 C 18.035156 -15.164062 18.546875 -13.847656 18.578125 -12.484375 C 18.578125 -11.878906 18.367188 -11.5625 17.953125 -11.53125 L 6.578125 -11.34375 C 6.796875 -12.863281 7.269531 -14.257812 8 -15.53125 C 9.53125 -17.78125 11.085938 -18.90625 12.671875 -18.90625 Z M 12.671875 -18.90625 "/></g></g></g></svg>